<svg id="Capa_1" enable-background="new 0 0 512 512" height="512" viewBox="0 0 512 512" width="512" xmlns="http://www.w3.org/2000/svg"><g><path d="m132.32 512h-128.339v-330.896c0-2.84 2.302-5.141 5.141-5.141h123.198z" fill="#c1e9af"/><g><path d="m221.275 58.222c-4.198 0-7.601-3.403-7.601-7.601v-43.02c0-4.198 3.403-7.601 7.601-7.601s7.601 3.403 7.601 7.601v43.02c0 4.198-3.403 7.601-7.601 7.601z" fill="#e1d3ce"/></g><path d="m508.019 512h-131.255v-269.35h126.113c2.84 0 5.141 2.302 5.141 5.141v264.209z" fill="#fee97d"/><path d="m508.019 247.852v264.148h-20.535v-264.148c0-2.873-2.337-5.2-5.21-5.2h20.546c2.872 0 5.199 2.327 5.199 5.2z" fill="#fee45a"/><path d="m291.2 67.29v9.92h-139.85v-38.12c0-2.84 2.3-5.14 5.14-5.14h129.5c.18 0 .36.01.53.03 2.63.26 4.67 2.48 4.67 5.17v28.14z" fill="#b5adb6"/><path d="m317.59 72.49v439.51h-192.63v-439.57c0-2.84 2.31-5.14 5.14-5.14h182.29c.18 0 .36.01.53.03.26.02.52.07.77.13.62.15 1.2.42 1.71.79.1.08.2.15.3.23 0 .01 0 .01.01 0 1.02.86 1.71 2.1 1.85 3.49.02.17.03.35.03.53z" fill="#e1d3ce"/><path d="m237.853 469.41h-60.954c-3.534 0-6.399-2.865-6.399-6.399v-346.735c0-3.534 2.865-6.399 6.399-6.399h60.954c3.534 0 6.399 2.865 6.399 6.399v346.735c0 3.534-2.865 6.399-6.399 6.399z" fill="#f9f3f1"/><path d="m244.251 116.525v346.238c0 3.677-2.97 6.647-6.647 6.647h-20.533c3.666 0 6.647-2.97 6.647-6.647v-346.238c0-3.666-2.981-6.647-6.647-6.647h20.533c3.677 0 6.647 2.98 6.647 6.647z" fill="#f3eae6"/><path d="m291.19 39.15v28.14h-20.23v-28.14c0-2.87-2.33-5.2-5.2-5.2h20.23c.18 0 .36.01.53.03 2.63.26 4.67 2.48 4.67 5.17z" fill="#a79ba7"/><path d="m317.59 72.49v439.51h-20.24v-439.51c0-2.87-2.32-5.2-5.2-5.2h20.24c.18 0 .36.01.53.03 1.05.1 2 .52 2.78 1.15 0 .01 0 .01.01 0 1.02.86 1.71 2.1 1.85 3.49.02.17.03.35.03.53z" fill="#cdbfba"/><path d="m285.699 512v-389c0-3.852 4.042-6.367 7.498-4.666l90.935 44.757c1.778.875 2.904 2.685 2.904 4.666v344.243z" fill="#8ac9fe"/><path d="m387.032 167.754v344.246h-20.535v-357.589l17.632 8.68c1.78.879 2.903 2.68 2.903 4.663z" fill="#60b7ff"/><path d="m107.235 175.958h17.733v336.042h-17.733z" fill="#ade194"/><g><g><path d="m320.377 457.695c-4.143 0-7.5-3.358-7.5-7.5v-273.746c0-4.142 3.357-7.5 7.5-7.5s7.5 3.358 7.5 7.5v273.746c0 4.142-3.357 7.5-7.5 7.5z" fill="#0593fc"/></g><g><path d="m352.358 457.695c-4.143 0-7.5-3.358-7.5-7.5v-251.042c0-4.142 3.357-7.5 7.5-7.5s7.5 3.358 7.5 7.5v251.042c0 4.142-3.357 7.5-7.5 7.5z" fill="#0593fc"/></g></g><g fill="#f9f3f1"><path d="m472.738 325.347h-50.421c-2.187 0-3.96-1.773-3.96-3.96v-29.427c0-2.187 1.773-3.96 3.96-3.96h50.421c2.187 0 3.96 1.773 3.96 3.96v29.427c0 2.187-1.773 3.96-3.96 3.96z"/><path d="m472.738 395.998h-50.421c-2.187 0-3.96-1.773-3.96-3.96v-29.427c0-2.187 1.773-3.96 3.96-3.96h50.421c2.187 0 3.96 1.773 3.96 3.96v29.427c0 2.187-1.773 3.96-3.96 3.96z"/><path d="m472.738 466.649h-50.421c-2.187 0-3.96-1.773-3.96-3.96v-29.427c0-2.187 1.773-3.96 3.96-3.96h50.421c2.187 0 3.96 1.773 3.96 3.96v29.427c0 2.188-1.773 3.96-3.96 3.96z"/></g><g fill="#f3eae6"><path d="m476.7 292.008v29.336c0 2.205-1.79 4.006-4.006 4.006h-20.232c2.215 0 4.006-1.801 4.006-4.006v-29.336c0-2.215-1.79-4.006-4.006-4.006h20.232c2.215 0 4.006 1.791 4.006 4.006z"/><path d="m476.7 362.658v29.336c0 2.215-1.79 4.006-4.006 4.006h-20.232c2.215 0 4.006-1.79 4.006-4.006v-29.336c0-2.215-1.79-4.006-4.006-4.006h20.232c2.215 0 4.006 1.79 4.006 4.006z"/><path d="m476.7 433.308v29.336c0 2.215-1.79 4.006-4.006 4.006h-20.232c2.215 0 4.006-1.791 4.006-4.006v-29.336c0-2.215-1.79-4.006-4.006-4.006h20.232c2.215 0 4.006 1.79 4.006 4.006z"/></g><g fill="#80d261"><path d="m89.683 327.328h-50.421c-2.187 0-3.96-1.773-3.96-3.96v-29.427c0-2.187 1.773-3.96 3.96-3.96h50.421c2.187 0 3.96 1.773 3.96 3.96v29.427c0 2.188-1.773 3.96-3.96 3.96z"/><path d="m89.683 397.98h-50.421c-2.187 0-3.96-1.773-3.96-3.96v-29.427c0-2.187 1.773-3.96 3.96-3.96h50.421c2.187 0 3.96 1.773 3.96 3.96v29.427c0 2.187-1.773 3.96-3.96 3.96z"/><path d="m89.683 468.631h-50.421c-2.187 0-3.96-1.773-3.96-3.96v-29.427c0-2.187 1.773-3.96 3.96-3.96h50.421c2.187 0 3.96 1.773 3.96 3.96v29.427c0 2.187-1.773 3.96-3.96 3.96z"/><path d="m89.683 256.677h-50.421c-2.187 0-3.96-1.773-3.96-3.96v-29.427c0-2.187 1.773-3.96 3.96-3.96h50.421c2.187 0 3.96 1.773 3.96 3.96v29.427c0 2.187-1.773 3.96-3.96 3.96z"/></g><path d="m93.639 293.991v29.336c0 2.205-1.791 4.006-4.006 4.006h-20.232c2.215 0 4.006-1.801 4.006-4.006v-29.336c0-2.215-1.791-4.006-4.006-4.006h20.232c2.215 0 4.006 1.79 4.006 4.006z" fill="#68ca44"/><path d="m93.639 364.641v29.336c0 2.205-1.791 4.006-4.006 4.006h-20.232c2.215 0 4.006-1.801 4.006-4.006v-29.336c0-2.215-1.791-4.006-4.006-4.006h20.232c2.215 0 4.006 1.79 4.006 4.006z" fill="#68ca44"/><path d="m93.639 435.29v29.336c0 2.215-1.791 4.006-4.006 4.006h-20.232c2.215 0 4.006-1.791 4.006-4.006v-29.336c0-2.215-1.791-4.006-4.006-4.006h20.232c2.215 0 4.006 1.791 4.006 4.006z" fill="#68ca44"/><path d="m93.639 223.341v29.326c0 2.215-1.791 4.006-4.006 4.006h-20.232c2.215 0 4.006-1.791 4.006-4.006v-29.326c0-2.215-1.791-4.006-4.006-4.006h20.232c2.215 0 4.006 1.791 4.006 4.006z" fill="#68ca44"/></g></svg>